# xmcd
#
# Track frame offsets:
#	182
#	11762
#	26337
#	37335
#	48492
#	60237
#	91560
#	102382
#	113412
#	124617
#	137472
#	150270
#	163297
#	175850
#	185182
#	204350
#
# Disc length: 2896
#
# Revision: 1
# Processed by: cddbd v1.5.1PL0 Copyright (c) Steve Scherf et al.
# Submitted via: ExactAudioCopy v0.90a11
# Normalized: r0:DSETVAR1,TDELIM( - )
#
DISCID=c60b4e10
DTITLE=Various Artist - The Best Of Blues Music - Volume 1
DYEAR=1900
DGENRE=
TTITLE0=Hooker and Besman - Boogie Chillun
TTITLE1=J Williams - Baby Please Don't Go
TTITLE2=W Dixon - The Red Rooster
TTITLE3=E McDaniel - Bo Diddley
TTITLE4=E Jordan and B Foster - I'd Rather Go Blind
TTITLE5=J Baird - Big Black Cadilac Blues
TTITLE6=C Berry - Roll Over Beethoven
TTITLE7=J Reed - Baby, What You Want Me To Do
TTITLE8=Hooker - Boom Boom Boom
TTITLE9=W Dixon - I Just Want To Make Love To You
TTITLE10=C Burnett - Back Door Man
TTITLE11=McDaniels and Matthews - 500% More Man
TTITLE12=P Woods, L Kirkland and E James - Somethings Got A Hold On Me
TTITLE13=J Baird - Coffee House Blues
TTITLE14=C Berry - My Ding A Ling
TTITLE15=J Reed - Shame, Shame, Shame
EXTD=
EXTT0=
EXTT1=
EXTT2=
EXTT3=
EXTT4=
EXTT5=
EXTT6=
EXTT7=
EXTT8=
EXTT9=
EXTT10=
EXTT11=
EXTT12=
EXTT13=
EXTT14=
EXTT15=
PLAYORDER=
